<svg width="142" height="16" viewBox="0 0 142 16" fill="none" xmlns="http://www.w3.org/2000/svg">
<path d="M6.40807 15.2888V2.99793H1.57574V0.71106H13.9475V2.99793H9.11514V15.2888H6.40807Z" fill="#878C92"/>
<path d="M15.9919 15.2888V0.71106H18.2222L24.598 11.3535H23.4343L29.6889 0.71106H31.9192L31.9434 15.2888H29.3818L29.3576 4.72722H29.899L24.5656 13.6161H23.3616L17.9475 4.72722H18.5697V15.2888H15.9838H15.9919Z" fill="#878C92"/>
<path d="M39.4586 15.2888V9.51914L40.0647 11.1838L33.7293 0.71106H36.6222L41.7051 9.14742H40.0808L45.2121 0.71106H47.8788L41.5515 11.1838L42.1738 9.51914V15.2888H39.4667H39.4586Z" fill="#878C92"/>
<path d="M52.1454 15.2888H49.4384V0.71106H60.0808V2.98177H52.1454V15.2888ZM51.9192 7.41813H59.1838V9.705H51.9192V7.41813Z" fill="#878C92"/>
<path d="M62.699 15.2888V0.71106H68.695C69.9879 0.71106 71.095 0.921161 72.0162 1.33328C72.9374 1.75348 73.6485 2.34338 74.1495 3.12722C74.6505 3.90298 74.901 4.82419 74.901 5.89894C74.901 6.97369 74.6505 7.88682 74.1495 8.66258C73.6485 9.43025 72.9374 10.0202 72.0162 10.4323C71.095 10.8444 69.9879 11.0464 68.695 11.0464H64.1939L65.398 9.81813V15.2969H62.6909L62.699 15.2888ZM65.4061 10.101L64.202 8.80803H68.5737C69.7697 8.80803 70.6667 8.54944 71.2727 8.04035C71.8788 7.52318 72.1778 6.81207 72.1778 5.89894C72.1778 4.98581 71.8788 4.25045 71.2727 3.75752C70.6667 3.2646 69.7697 3.00601 68.5737 3.00601H64.202L65.4061 1.67268V10.109V10.101ZM72.2344 15.2888L68.5495 9.99591H71.4424L75.1515 15.2888H72.2344Z" fill="#878C92"/>
<path d="M77.9232 15.2888V0.71106H80.1535L89.2929 11.9353H88.1858V0.71106H90.8687V15.2888H88.6384L79.499 4.0646H80.606V15.2888H77.9232Z" fill="#878C92"/>
<path d="M101.543 15.499C100.436 15.499 99.402 15.3132 98.4485 14.9495C97.495 14.5778 96.6707 14.0606 95.9677 13.3899C95.2647 12.7192 94.7232 11.9192 94.3354 11.0061C93.9475 10.093 93.7535 9.09095 93.7535 8.00812C93.7535 6.92529 93.9475 5.92327 94.3354 5.01014C94.7232 4.09701 95.2727 3.29701 95.9838 2.6263C96.695 1.9556 97.5192 1.43034 98.4647 1.06671C99.4101 0.69499 100.444 0.517212 101.568 0.517212C102.764 0.517212 103.855 0.719232 104.84 1.13135C105.826 1.54347 106.659 2.14954 107.337 2.95762L105.584 4.6061C105.059 4.04044 104.469 3.61216 103.814 3.32125C103.16 3.03842 102.457 2.89297 101.689 2.89297C100.921 2.89297 100.226 3.01418 99.596 3.26469C98.9657 3.51519 98.4162 3.87075 97.9475 4.32327C97.4788 4.78388 97.1232 5.32529 96.8647 5.94752C96.6061 6.56974 96.4768 7.25661 96.4768 8.00812C96.4768 8.75964 96.6061 9.4465 96.8647 10.0687C97.1232 10.6909 97.4788 11.2324 97.9475 11.693C98.4162 12.1536 98.9576 12.501 99.596 12.7516C100.226 13.0021 100.929 13.1233 101.689 13.1233C102.448 13.1233 103.16 12.9778 103.814 12.695C104.469 12.4122 105.059 11.9758 105.584 11.394L107.337 13.0586C106.659 13.8505 105.826 14.4566 104.84 14.8687C103.855 15.2889 102.756 15.4909 101.552 15.4909L101.543 15.499Z" fill="#878C92"/>
<path d="M109.939 15.2888V0.71106H112.17L121.309 11.9353H120.202V0.71106H122.885V15.2888H120.655L111.515 4.0646H112.622V15.2888H109.939Z" fill="#878C92"/>
<path d="M126.804 15.2888V0.71106H129.034L138.174 11.9353H137.067V0.71106H139.749V15.2888H137.519L128.38 4.0646H129.487V15.2888H126.804Z" fill="#878C92"/>
</svg>
